<svg id="Layer_1" data-name="Layer 1" xmlns="http://www.w3.org/2000/svg" viewBox="0 0 960 1105.26"><defs><style>.cls-1{fill:#fff;}</style></defs><path class="cls-1" d="M7.53,270.79,240,137V969.43L7.53,835.6a14.93,14.93,0,0,1-7.53-13V671.37L107.56,563.8a15,15,0,0,0,0-21.21L0,435V283.74A14.9,14.9,0,0,1,7.53,270.79Z"/><path class="cls-1" d="M489.21,2,599.89,65.87v972.54l-112.43,64.85a15.21,15.21,0,0,1-15.06,0L360,1038.41V68L474.23,2A15.06,15.06,0,0,1,489.21,2Z"/><path class="cls-1" d="M852.3,542.59a15,15,0,0,0,0,21.21L960,671.37V822.56a15.14,15.14,0,0,1-7.53,13L719.94,969.43V134.85L952.42,268.68A15.08,15.08,0,0,1,960,281.63V435Z"/></svg>