<svg id="Layer_1" data-name="Layer 1" xmlns="http://www.w3.org/2000/svg" viewBox="0 0 1920 654.01"><defs><style>.cls-1{fill:#fff;}.cls-2{fill:#00e6e6;}</style></defs><polygon class="cls-1" points="921.71 382.32 886.67 274.46 838.13 274.46 803.27 382.68 771.08 274.46 712.91 274.46 777.63 461.71 826.18 461.71 862.72 354.02 898.62 461.71 947.16 461.71 1012.27 274.46 954.09 274.46 921.71 382.32"/><path class="cls-1" d="M1157.74,346.67l-81,.46a50.2,50.2,0,0,1,2.74-7.17,43.41,43.41,0,0,1,15.79-18.1q10.2-6.56,24.08-6.56,12.72,0,21.77,5.78a36,36,0,0,1,13.68,16.38,53.47,53.47,0,0,1,2.91,9.21m56,17.18q0-27.36-12.33-48.55a88.41,88.41,0,0,0-33.52-33.13q-21.2-11.94-49.31-11.95-28.53,0-51.25,12.73a94.2,94.2,0,0,0-35.84,34.86q-13.1,22.15-13.09,49.9,0,28.52,13.49,50.85a93.73,93.73,0,0,0,37,34.87q23.5,12.51,53.94,12.52,23.88,0,43.54-7.89a84,84,0,0,0,33.51-24.47l-32.74-32.36a54.94,54.94,0,0,1-19.65,14.44,61.51,61.51,0,0,1-24.66,4.82q-15,0-26-6.36a42.65,42.65,0,0,1-16.95-18.3,51.09,51.09,0,0,1-3.05-7.83l133.86-.65a76.55,76.55,0,0,0,2.5-12.52,108.21,108.21,0,0,0,.58-11"/><path class="cls-1" d="M1415.66,306.25a69.55,69.55,0,0,0-25.42-26q-16.18-9.63-36.6-9.64-21.59,0-38.73,9.06a69.34,69.34,0,0,0-14.06,9.89v-15.1h-59.33V461.71h59.33V355a33.17,33.17,0,0,1,4.24-16.95,29.65,29.65,0,0,1,11.56-11.37,33.64,33.64,0,0,1,16.57-4.05q13.88,0,23.11,9.06t9.24,23.31V461.71h59.34V341.89a71.22,71.22,0,0,0-9.25-35.64"/><path class="cls-2" d="M1601.76,368.09a45.83,45.83,0,0,1-5.59,22.73,40.76,40.76,0,0,1-15,15.6,41.19,41.19,0,0,1-21.4,5.59,43.14,43.14,0,0,1-21.76-5.39A37.78,37.78,0,0,1,1523.16,391a48.93,48.93,0,0,1-5.4-23.3,47.7,47.7,0,0,1,5.21-22.36,37.74,37.74,0,0,1,14.83-15.6,43,43,0,0,1,22-5.59,40.38,40.38,0,0,1,36.42,21.19,45.89,45.89,0,0,1,5.59,22.74m60.1,0q0-28.12-11.94-50.09a91.2,91.2,0,0,0-32.56-34.68q-20.61-12.7-46.81-12.71a83.37,83.37,0,0,0-34.68,7.13,70.41,70.41,0,0,0-14.63,8.82V182h-59.35V461.71h58.57v-14a73.85,73.85,0,0,0,15,9.91,77.24,77.24,0,0,0,35.06,7.91q26.19,0,47-12.92A90.89,90.89,0,0,0,1650.11,418q11.75-21.76,11.75-49.89"/><path class="cls-2" d="M1721.19,182a30.87,30.87,0,0,0-22.73,9.25q-9.26,9.25-9.24,23.12a32.16,32.16,0,0,0,9.24,23.12,30.27,30.27,0,0,0,22.73,9.63q14.25,0,22.92-9.63a33.35,33.35,0,0,0,8.67-23.12q0-13.87-8.67-23.12T1721.19,182"/><rect class="cls-2" x="1691.53" y="274.46" width="59.33" height="187.25"/><polygon class="cls-2" points="1818.28 234.01 1818.28 274.46 1776.28 274.46 1776.28 324.94 1818.28 324.94 1818.28 461.71 1877.61 461.71 1877.61 324.94 1920 324.94 1920 274.46 1877.61 274.46 1877.61 182 1818.28 234.01"/><path class="cls-2" d="M4.46,160.22,142,81v492.6L4.46,494.44A8.83,8.83,0,0,1,0,486.72V397.25l63.65-63.64a8.86,8.86,0,0,0,0-12.56L0,257.4V167.88A8.8,8.8,0,0,1,4.46,160.22Z"/><path class="cls-2" d="M289.49,1.18,355,39V614.45l-66.53,38.37a9,9,0,0,1-8.91,0L213,614.45V40.21l67.62-39A8.92,8.92,0,0,1,289.49,1.18Z"/><path class="cls-2" d="M504.34,321.05a8.88,8.88,0,0,0,0,12.56l63.71,63.64v89.47a9,9,0,0,1-4.46,7.72L426,573.63V79.78L563.59,159a8.93,8.93,0,0,1,4.46,7.66V257.4Z"/></svg>