<svg id="Layer_1" data-name="Layer 1" xmlns="http://www.w3.org/2000/svg" viewBox="0 0 960 1105.26"><defs><style>.cls-1{fill:#00191e;}</style></defs><path class="cls-1" d="M7.53,270.76,240,136.93V969.4L7.53,835.57A14.94,14.94,0,0,1,0,822.52V671.33L107.56,563.77a15,15,0,0,0,0-21.22L0,435V283.71A14.87,14.87,0,0,1,7.53,270.76Z"/><path class="cls-1" d="M489.21,2,599.89,65.84v972.54l-112.43,64.85a15.21,15.21,0,0,1-15.06,0L360,1038.38V68L474.23,2A15,15,0,0,1,489.21,2Z"/><path class="cls-1" d="M852.3,542.55a15,15,0,0,0,0,21.22L960,671.33V822.52a15.15,15.15,0,0,1-7.53,13.05L719.94,969.4V134.82L952.42,268.65a15.08,15.08,0,0,1,7.53,13V435Z"/></svg>