<svg id="Layer_1" data-name="Layer 1" xmlns="http://www.w3.org/2000/svg" viewBox="0 0 1200 282.29"><defs><style>.cls-1{fill:#fff;}</style></defs><polygon class="cls-1" points="207.57 199.15 172.74 91.93 124.48 91.93 89.84 199.51 57.83 91.93 0 91.93 64.34 278.07 112.61 278.07 148.93 171.02 184.62 278.07 232.88 278.07 297.61 91.93 239.77 91.93 207.57 199.15"/><path class="cls-1" d="M442.22,163.71l-80.5.46a50.39,50.39,0,0,1,2.73-7.13,43.13,43.13,0,0,1,15.7-18q10.14-6.51,23.94-6.51,12.63,0,21.64,5.74a35.73,35.73,0,0,1,13.6,16.28,53.17,53.17,0,0,1,2.89,9.16m55.71,17.08q0-27.19-12.26-48.26a87.82,87.82,0,0,0-33.32-32.94q-21.08-11.88-49-11.88-28.36,0-50.95,12.65A93.7,93.7,0,0,0,316.75,135q-13,22-13,49.6,0,28.35,13.41,50.55a93.29,93.29,0,0,0,36.77,34.67q23.37,12.44,53.62,12.45,23.75,0,43.29-7.85a83.47,83.47,0,0,0,33.32-24.32l-32.55-32.18a54.51,54.51,0,0,1-19.54,14.36,61.19,61.19,0,0,1-24.52,4.8q-14.94,0-25.85-6.33a42.32,42.32,0,0,1-16.85-18.19,50.59,50.59,0,0,1-3-7.79l133.08-.64a76.48,76.48,0,0,0,2.48-12.45,106.7,106.7,0,0,0,.58-10.91"/><path class="cls-1" d="M698.63,123.52a69.29,69.29,0,0,0-25.28-25.85Q657.27,88.1,637,88.1q-21.45,0-38.49,9a68.3,68.3,0,0,0-14,9.84v-15h-59V278.08h59V172a33,33,0,0,1,4.21-16.85,29.62,29.62,0,0,1,11.5-11.31,33.41,33.41,0,0,1,16.46-4q13.8,0,23,9T648.83,172v106.1h59V159a70.87,70.87,0,0,0-9.19-35.44"/><path class="cls-1" d="M883.63,185a45.52,45.52,0,0,1-5.56,22.6,40.11,40.11,0,0,1-36.2,21.06,42.84,42.84,0,0,1-21.63-5.36,37.53,37.53,0,0,1-14.75-15.51,48.77,48.77,0,0,1-5.36-23.17,47.54,47.54,0,0,1,5.17-22.23A37.53,37.53,0,0,1,820,146.89a42.73,42.73,0,0,1,21.83-5.56,40.16,40.16,0,0,1,36.2,21.06A45.62,45.62,0,0,1,883.63,185m59.75,0q0-28-11.88-49.79a90.65,90.65,0,0,0-32.36-34.48Q878.64,88.1,852.6,88.09a82.91,82.91,0,0,0-34.47,7.09A70.07,70.07,0,0,0,803.58,104V0h-59V278.07h58.22V264.19a73.42,73.42,0,0,0,14.94,9.86,76.88,76.88,0,0,0,34.85,7.86q26,0,46.74-12.84a90.42,90.42,0,0,0,32.35-34.47Q943.38,213,943.38,185"/><path class="cls-1" d="M1002.36,0a30.71,30.71,0,0,0-22.6,9.19q-9.19,9.19-9.19,23a32,32,0,0,0,9.19,23,30.08,30.08,0,0,0,22.6,9.58q14.16,0,22.79-9.58a33.18,33.18,0,0,0,8.62-23q0-13.8-8.62-23T1002.36,0"/><rect class="cls-1" x="972.87" y="91.93" width="58.98" height="186.15"/><polygon class="cls-1" points="1098.87 51.71 1098.87 91.92 1057.13 91.92 1057.13 142.1 1098.87 142.1 1098.87 278.07 1157.86 278.07 1157.86 142.1 1200 142.1 1200 91.92 1157.86 91.92 1157.86 0 1098.87 51.71"/></svg>