<svg id="Layer_1" data-name="Layer 1" xmlns="http://www.w3.org/2000/svg" viewBox="0 0 24 24"><defs><style>.cls-1{fill:#d1bcff;}.cls-2{fill:#542f8e;}.cls-3{fill:#e6e7e8;}.cls-4{fill:#414042;}.cls-5{fill:#808285;}.cls-6{fill:#794eb3;}.cls-7{opacity:0.41;}.cls-8{fill:#f8f5fe;}.cls-9{fill:#986ae2;}.cls-10{fill:#58595b;}</style></defs><rect class="cls-1" x="5.76" y="10.29" width="6.73" height="10.82" rx="0.45"/><path class="cls-2" d="M12,10.29v9.93a.44.44,0,0,1-.44.44H5.76a.45.45,0,0,0,.44.45H12a.45.45,0,0,0,.45-.45V10.74A.45.45,0,0,0,12,10.29Z"/><circle class="cls-3" cx="9.12" cy="17.63" r="2.24"/><circle class="cls-4" cx="9.12" cy="17.63" r="1.79"/><circle class="cls-5" cx="9.12" cy="17.63" r="0.9"/><circle class="cls-3" cx="9.12" cy="12.88" r="1.35"/><circle class="cls-4" cx="9.12" cy="12.88" r="0.9"/><circle class="cls-5" cx="9.12" cy="12.88" r="0.45"/><path class="cls-6" d="M17.77,16.42a2.36,2.36,0,0,1-.14-1.58,3.12,3.12,0,0,0,.09-.44c.27-1.87-1-2.87-2.82-3.12s-3.31.34-3.58,2.21c0,.15,0,.3,0,.44a2.27,2.27,0,0,1-.58,1.48A4.82,4.82,0,0,0,9.53,18c-.37,2.54,1.4,4.05,3.79,4.39s4.51-.62,4.87-3.16A4.7,4.7,0,0,0,17.77,16.42Z"/><g class="cls-7"><path class="cls-8" d="M11.59,15h0a.18.18,0,0,1-.1-.22,2.33,2.33,0,0,0,.13-.52c0-.1,0-.21,0-.31a2.69,2.69,0,0,1,0-.4,2.26,2.26,0,0,1,.67-1.39.18.18,0,0,1,.24,0,.17.17,0,0,1,0,.24A1.89,1.89,0,0,0,12,13.59,2.1,2.1,0,0,0,12,14a2.16,2.16,0,0,1,0,.35,3,3,0,0,1-.15.59A.17.17,0,0,1,11.59,15ZM13,12.09a.21.21,0,0,1-.13-.1.18.18,0,0,1,.09-.22l.05,0a.17.17,0,0,1,.22.1.16.16,0,0,1-.1.21l0,0Z"/></g><path class="cls-2" d="M17.77,16.42a2.36,2.36,0,0,1-.14-1.58,3.12,3.12,0,0,0,.09-.44,2.38,2.38,0,0,0-.8-2.3,2.61,2.61,0,0,1,.16,1.45A3,3,0,0,1,17,14a2.39,2.39,0,0,0,.14,1.59,4.78,4.78,0,0,1,.42,2.77c-.36,2.54-2.48,3.5-4.87,3.16a5.14,5.14,0,0,1-2.82-1.26,4.46,4.46,0,0,0,3.46,2.11c2.39.34,4.51-.62,4.87-3.16A4.7,4.7,0,0,0,17.77,16.42Z"/><path class="cls-1" d="M17.77,16.42a2.36,2.36,0,0,1-.14-1.58,3.12,3.12,0,0,0,.09-.44,2.4,2.4,0,0,0-.6-2.11A2.49,2.49,0,0,1,17.4,14a3,3,0,0,1-.09.43A2.36,2.36,0,0,0,17.45,16a4.83,4.83,0,0,1,.42,2.78c-.36,2.54-2.48,3.5-4.87,3.15a4.83,4.83,0,0,1-3-1.45,4.57,4.57,0,0,0,3.32,1.88c2.39.34,4.51-.62,4.87-3.16A4.7,4.7,0,0,0,17.77,16.42Z"/><path class="cls-9" d="M17.27,1.87l-2-.28a.38.38,0,0,0-.43.32l-.32,2.22A1.31,1.31,0,0,0,15,5.35l-1.4,8.36a.16.16,0,0,0,.13.17l1.57.22a.14.14,0,0,0,.17-.13l1-8.41a1.32,1.32,0,0,0,.82-1l.31-2.22A.38.38,0,0,0,17.27,1.87Z"/><path class="cls-2" d="M17.44,2a.36.36,0,0,1,0,.18l-.31,2.22a1.31,1.31,0,0,1-.81,1l-1,8.41a.14.14,0,0,1-.17.13l-1.57-.22a.16.16,0,0,0,.13.17l1.57.22a.14.14,0,0,0,.17-.13l1-8.41a1.32,1.32,0,0,0,.82-1l.31-2.22A.36.36,0,0,0,17.44,2Z"/><circle class="cls-10" cx="14.2" cy="16.19" r="1.51"/><path class="cls-4" d="M15.23,15.09a1.48,1.48,0,0,1,.14.89,1.51,1.51,0,0,1-2.52.89,1.51,1.51,0,0,0,2.84-.46A1.48,1.48,0,0,0,15.23,15.09Z"/><rect class="cls-9" x="12.57" y="18.95" width="2.34" height="0.91" rx="0.15" transform="translate(2.88 -1.75) rotate(8.12)"/><path class="cls-2" d="M14.81,19.1l-.08.6a.15.15,0,0,1-.17.13l-2-.29a.17.17,0,0,0,.13.18l2,.28a.15.15,0,0,0,.17-.13l.08-.6A.15.15,0,0,0,14.81,19.1Z"/><path class="cls-1" d="M13.28,19.43a.09.09,0,0,1-.07-.1l2-14.12-.16-1.55s0-.08.07-.09a.08.08,0,0,1,.09.08l.16,1.55v0l-2,14.14A.1.1,0,0,1,13.28,19.43Z"/><path class="cls-1" d="M13.58,19.47a.08.08,0,0,1-.07-.1l2-14.12-.11-2.46a.08.08,0,0,1,.08-.08c.05,0,.08,0,.09.08l.1,2.46h0l-2,14.14A.07.07,0,0,1,13.58,19.47Z"/><path class="cls-1" d="M13.88,19.51a.07.07,0,0,1-.07-.09l2-14.14h0l.79-2.34a.09.09,0,0,1,.11-.05.09.09,0,0,1,.05.11L16,5.31,14,19.44A.07.07,0,0,1,13.88,19.51Z"/><path class="cls-1" d="M14.18,19.55a.07.07,0,0,1-.07-.09l2-14.13v0l.59-1.45a.08.08,0,0,1,.11,0,.08.08,0,0,1,0,.11l-.58,1.44-2,14.12A.07.07,0,0,1,14.18,19.55Z"/><path class="cls-4" d="M17.76,3.18h0L16.82,3a.08.08,0,0,1-.07-.1.08.08,0,0,1,.09-.07h0l.95.14a.09.09,0,0,1,0,.17Z"/><circle class="cls-6" cx="17.87" cy="3.11" r="0.24"/><circle class="cls-6" cx="16.75" cy="2.95" r="0.15"/><path class="cls-4" d="M17.64,4.07h0L16.84,4a.08.08,0,0,1-.07-.1.08.08,0,0,1,.09-.07h0l.8.12a.08.08,0,1,1,0,.16Z"/><circle class="cls-6" cx="17.74" cy="4" r="0.24"/><circle class="cls-6" cx="16.85" cy="3.88" r="0.15"/><path class="cls-4" d="M14.42,2.7a.08.08,0,0,1-.07-.09.07.07,0,0,1,.09-.07l1,.13h0a.08.08,0,0,1,0,.16l-.95-.13Z"/><circle class="cls-6" cx="14.33" cy="2.6" r="0.24"/><circle class="cls-6" cx="15.45" cy="2.76" r="0.15"/><path class="cls-4" d="M14.29,3.6a.09.09,0,0,1-.07-.1.1.1,0,0,1,.09-.07l.8.11h0a.08.08,0,0,1,.07.1.08.08,0,0,1-.09.07l-.8-.11Z"/><circle class="cls-6" cx="14.21" cy="3.5" r="0.24"/><circle class="cls-6" cx="15.1" cy="3.63" r="0.15"/></svg>