<svg id="Layer_1" data-name="Layer 1" xmlns="http://www.w3.org/2000/svg" viewBox="0 0 24 24"><defs><style>.cls-1{fill:#808285;}.cls-2{fill:#794eb3;}.cls-3{fill:#986ae2;}.cls-4{fill:#542f8e;}.cls-5{fill:#d1bcff;}.cls-6{fill:#414042;}.cls-7,.cls-9{opacity:0.41;}.cls-8,.cls-9{fill:#f8f5fe;}.cls-10{fill:#e6e7e8;}</style></defs><path class="cls-1" d="M16.81,8.4a2.35,2.35,0,0,1,.24,1,1.65,1.65,0,0,1-.9,1.55L14.32,7.22A2,2,0,0,1,16.81,8.4Z"/><path class="cls-2" d="M6.89,15.57l.79-.35L9.52,19a.93.93,0,0,1,.08.35.83.83,0,0,1-.51.76.89.89,0,0,1-1.15-.4L6.11,15.92l0-.13A2.58,2.58,0,0,0,6.89,15.57Z"/><path class="cls-2" d="M5.48,10.71l2.2,4.51-.79.35a2.58,2.58,0,0,1-.8.22,2.64,2.64,0,0,1-2.66-1.42,2.47,2.47,0,0,1-.24-1,2.51,2.51,0,0,1,1.5-2.27Z"/><path class="cls-3" d="M16.15,11l1.65,3.38s-2.7-.63-10.12.85l-2.2-4.51C11.83,6,12.67,3.83,12.67,3.83l1.65,3.39Z"/><path class="cls-4" d="M6.82,13.5,6,13.85a2.58,2.58,0,0,1-.8.22,2.69,2.69,0,0,1-2-.63,2.4,2.4,0,0,0,.23.93,2.64,2.64,0,0,0,2.66,1.42,2.58,2.58,0,0,0,.8-.22l.79-.35L6.84,13.5Z"/><path class="cls-5" d="M6.84,13.5l.84,1.72c7.42-1.48,10.12-.85,10.12-.85l-1-2a36,36,0,0,0-6.35.47,2.59,2.59,0,0,1-2.67-1.35l-1-1.84-1.38,1L6.84,13.5"/><path class="cls-4" d="M7.5,17.19A.91.91,0,0,1,8,15.93l0,0-.34-.69-.79.35a2.58,2.58,0,0,1-.8.22l0,.13,1.83,3.77a.9.9,0,0,0,1,.44Z"/><path class="cls-6" d="M15.58,8.41,14.92,7.1a1.4,1.4,0,0,0-.6.12L16.15,11a1.65,1.65,0,0,0,.9-1.55A2.09,2.09,0,0,0,17,9,1.12,1.12,0,0,1,15.58,8.41Z"/><g class="cls-7"><path class="cls-8" d="M8.13,10.71a.62.62,0,0,1-.53-.29.64.64,0,0,1,.17-.89c.65-.43,2-1.56,2.74-2.17a.65.65,0,1,1,.83,1c-1,.86-2.2,1.82-2.85,2.25A.61.61,0,0,1,8.13,10.71Z"/></g><path class="cls-9" d="M13.29,6.41A.64.64,0,0,0,13.1,6a.65.65,0,0,0-.58-.18l-.12,0-.11,0-.07.06h0l-.42.36a.64.64,0,0,0-.08.9.66.66,0,0,0,.5.23.65.65,0,0,0,.41-.15l.43-.36h0l0,0A.66.66,0,0,0,13.29,6.41Z"/><path class="cls-10" d="M17.37,8.13A.42.42,0,0,1,17,7.91a.42.42,0,0,1,.16-.58l3-1.72a.42.42,0,0,1,.58.16.43.43,0,0,1-.16.59l-3,1.71A.43.43,0,0,1,17.37,8.13Z"/><path class="cls-10" d="M16.51,6.84a.42.42,0,0,1-.28-.1.43.43,0,0,1,0-.61L18,4a.43.43,0,0,1,.61,0,.42.42,0,0,1,0,.6L16.84,6.69A.44.44,0,0,1,16.51,6.84Z"/><path class="cls-10" d="M20.38,9.42H17.8a.43.43,0,0,1,0-.86h2.58a.43.43,0,0,1,0,.86Z"/></svg>